<svg width="150" height="150" viewBox="0 0 150 150" fill="none" xmlns="http://www.w3.org/2000/svg">
<g clip-path="url(#clip0_22_136)">
<path d="M149.5 75C149.5 33.8548 116.145 0.5 75 0.5C33.8548 0.5 0.5 33.8548 0.5 75C0.5 116.145 33.8548 149.5 75 149.5C116.145 149.5 149.5 116.145 149.5 75Z" stroke="#F38C73" stroke-opacity="0.6"/>
<path fill-rule="evenodd" clip-rule="evenodd" d="M85.0978 47.5148H68.2555V45.7646H87.7578V66.6932H86.0078V49.1064L64.5239 72.2351L63.2417 71.0441L85.0978 47.5148Z" fill="#F38C73"/>
<path d="M33.2271 97.1C33.2271 93.698 35.2851 92.074 38.0011 92.102C40.2551 92.13 42.1031 93.236 42.6491 95.546L41.3191 95.91C40.9831 94.496 39.8211 93.488 38.0011 93.488C35.8311 93.474 34.5991 94.86 34.5991 97.1C34.5991 99.368 35.9151 100.726 38.0011 100.712C39.8491 100.712 40.9831 99.704 41.3191 98.29L42.6491 98.654C42.1031 100.964 40.2551 102.07 38.0011 102.098C35.2851 102.126 33.2271 100.502 33.2271 97.1ZM48.1483 102.098C45.4603 102.098 43.2623 100.488 43.2623 97.1C43.2623 93.698 45.4603 92.074 48.1483 92.102C50.8363 92.13 53.0343 93.712 53.0343 97.1C53.0343 100.488 50.8363 102.098 48.1483 102.098ZM48.1483 93.39C46.3703 93.376 44.6343 94.748 44.6343 97.1C44.6343 99.438 46.3563 100.81 48.1483 100.81C50.0383 100.81 51.6623 99.438 51.6623 97.1C51.6623 94.734 49.9403 93.418 48.1483 93.39ZM55.1369 102H53.7649V92.2H55.1789L60.5689 99.424C60.8069 99.732 61.0309 100.166 61.1429 100.53L61.1709 100.516C61.0449 100.166 60.9609 99.676 60.9609 99.298V92.2H62.3329V102H60.9189L55.5149 94.86C55.2909 94.566 55.0669 94.118 54.9409 93.754L54.9269 93.768C55.0389 94.132 55.1369 94.608 55.1369 95V102ZM63.0312 92.2H71.4592V93.488H68.4072C68.1272 93.488 67.8052 93.348 67.6092 93.138L67.5812 93.166C67.7912 93.362 67.9312 93.684 67.9312 93.964V102H66.5592V93.488H63.0312V92.2ZM71.2694 102H69.7854L73.4814 92.2H75.4834L79.1794 102H77.7094L76.7994 99.662H72.1514L71.2694 102ZM74.4753 93.432L72.5854 98.444C73.7613 98.444 74.5734 98.43 75.1754 98.5C75.7634 98.556 76.3514 98.808 76.7574 99.522L74.4753 93.432ZM78.6725 97.1C78.6725 93.698 80.7304 92.074 83.4464 92.102C85.7005 92.13 87.5485 93.236 88.0945 95.546L86.7645 95.91C86.4285 94.496 85.2664 93.488 83.4464 93.488C81.2765 93.474 80.0444 94.86 80.0444 97.1C80.0444 99.368 81.3605 100.726 83.4464 100.712C85.2944 100.712 86.4285 99.704 86.7645 98.29L88.0945 98.654C87.5485 100.964 85.7005 102.07 83.4464 102.098C80.7304 102.126 78.6725 100.502 78.6725 97.1ZM88.2558 92.2H96.6838V93.488H93.6318C93.3518 93.488 93.0298 93.348 92.8338 93.138L92.8058 93.166C93.0158 93.362 93.1558 93.684 93.1558 93.964V102H91.7838V93.488H88.2558V92.2ZM100.181 97.744V92.2H101.553V97.758C101.553 99.662 102.715 100.824 104.521 100.824C106.313 100.824 107.447 99.69 107.447 97.758V92.2H108.819V97.744C108.819 100.726 106.803 102.112 104.521 102.112C102.127 102.112 100.181 100.768 100.181 97.744ZM109.558 99.172L110.888 99.004C110.972 100.124 111.994 100.768 113.562 100.782C115.326 100.782 116.362 100.152 116.362 98.962C116.362 96.666 109.712 98.458 109.712 94.986C109.712 93.026 111.434 92.032 113.618 92.06C115.634 92.088 117.174 92.97 117.342 94.706L116.026 94.888C115.942 93.922 115.228 93.348 113.618 93.348C112.022 93.348 111.084 93.95 111.084 94.986C111.084 97.044 117.734 95.224 117.734 98.92C117.734 100.264 116.936 102.07 113.576 102.07C110.482 102.07 109.656 100.586 109.558 99.172Z" fill="#F38C73"/>
</g>
<defs>
<clipPath id="clip0_22_136">
<rect width="150" height="150" fill="white"/>
</clipPath>
</defs>
</svg>
