<svg width="51" height="51" viewBox="0 0 51 51" fill="none" xmlns="http://www.w3.org/2000/svg">
<path d="M50.5 25.4993C50.5 38.1256 41.14 48.5638 28.9816 50.2582C27.8443 50.4165 26.6812 50.4986 25.5007 50.4986C24.1375 50.4986 22.8001 50.3892 21.4959 50.179C9.59078 48.2629 0.5 37.9428 0.5 25.4993C0.5 11.6925 11.6925 0.5 25.4993 0.5C39.306 0.5 50.4986 11.6925 50.4986 25.4993H50.5Z" fill="#F38C73"/>
<path d="M28.9815 20.5732V26.0191H35.7186L34.6519 33.3565H28.9815V50.2597C27.8443 50.418 26.6811 50.5001 25.5007 50.5001C24.1374 50.5001 22.8001 50.3907 21.4958 50.1805V33.3565H15.2827V26.0191H21.4958V19.3568C21.4958 15.2224 24.8471 11.8697 28.9829 11.8697V11.874C28.9945 11.874 29.006 11.8697 29.0175 11.8697H35.7201V18.2138H31.3409C30.0381 18.2138 28.9829 19.269 28.9829 20.5718L28.9815 20.5732Z" fill="#2C4433"/>
</svg>
