<svg width="51" height="51" viewBox="0 0 51 51" fill="none" xmlns="http://www.w3.org/2000/svg">
<path d="M50.5 25.5C50.5 38.1267 41.1398 48.5652 28.9809 50.2596C27.8437 50.4179 26.6805 50.5 25.5 50.5C24.1367 50.5 22.7993 50.3906 21.4951 50.1804C9.59248 48.2643 0.5 37.9424 0.5 25.4986C0.5 11.6928 11.6928 0.5 25.5 0.5C39.3071 0.5 50.5 11.6928 50.5 25.5Z" fill="#F38C73"/>
<path d="M33.3301 10.4923H17.6717C13.3457 10.4923 9.8273 14.0107 9.8273 18.3367V32.6621C9.8273 36.9881 13.3457 40.5064 17.6717 40.5064H33.3301C37.6561 40.5064 41.1745 36.9881 41.1745 32.6621V18.3367C41.1745 14.0107 37.6561 10.4923 33.3301 10.4923ZM12.5942 18.3367C12.5942 15.5367 14.8716 13.2592 17.6717 13.2592H33.3301C36.1301 13.2592 38.4076 15.5367 38.4076 18.3367V32.6621C38.4076 35.4621 36.1301 37.7395 33.3301 37.7395H17.6717C14.8716 37.7395 12.5942 35.4621 12.5942 32.6621V18.3367Z" fill="#2C4433"/>
<path d="M25.5003 32.7973C29.5239 32.7973 32.7976 29.5237 32.7976 25.5C32.7976 21.4764 29.5239 18.2027 25.5003 18.2027C21.4766 18.2027 18.203 21.4764 18.203 25.5C18.203 29.5237 21.4766 32.7973 25.5003 32.7973ZM25.5003 20.9711C27.998 20.9711 30.0292 23.0023 30.0292 25.5C30.0292 27.9977 27.998 30.029 25.5003 30.029C23.0026 30.029 20.9713 27.9977 20.9713 25.5C20.9713 23.0023 23.0026 20.9711 25.5003 20.9711Z" fill="#2C4433"/>
<path d="M33.4742 19.3804C34.5582 19.3804 35.4407 18.4979 35.4407 17.4139C35.4407 16.3299 34.5582 15.4474 33.4742 15.4474C32.3902 15.4474 31.5077 16.3299 31.5077 17.4139C31.5077 18.4979 32.3902 19.3804 33.4742 19.3804Z" fill="#2C4433"/>
</svg>
