<svg width="1240" height="176" viewBox="0 0 1240 176" fill="none" xmlns="http://www.w3.org/2000/svg">
<path d="M48.4735 175.069H0V15.3676H48.4735V78.4545H162.579V15.3676H211.053V175.069H162.579V111.592H48.4735V175.069Z" fill="#F38C73"/>
<path d="M284.152 175.069H235.557V69.1615H284.152V175.069Z" fill="#F38C73"/>
<path d="M309.578 175.069V15.3675H460.146C492.104 14.5068 508.191 31.9764 508.191 59.0886C508.191 77.809 502.614 87.9223 492.962 93.3017C507.547 97.39 516.556 107.503 516.556 130.958C516.556 158.07 500.469 175.929 468.511 175.069H309.578ZM358.052 141.932H452.639C462.72 142.362 468.082 136.982 467.868 126.869C468.082 116.756 462.72 111.376 452.639 111.592H358.052V141.932ZM444.274 48.1147H358.052V78.4545H444.274C454.355 78.6697 459.717 73.2903 459.503 63.3922C459.717 53.2789 454.355 47.8995 444.274 48.1147Z" fill="#F38C73"/>
<path d="M583.922 146.02L568.265 175.069H517.003L602.368 15.3675H670.574L756.153 175.069H704.677L689.02 146.02H583.922ZM636.471 47.4691L601.51 112.883H671.432L636.471 47.4691Z" fill="#F38C73"/>
<path d="M942.292 152.045V15.3675H990.98V175.069H906.259L814.46 38.0014V175.069H765.986V15.3675H850.493L942.292 152.045Z" fill="#F38C73"/>
<path d="M1067.77 146.02L1052.11 175.069H1000.85L1086.21 15.3675H1154.42L1240 175.069H1188.52L1172.87 146.02H1067.77ZM1120.32 47.4691L1085.36 112.883H1155.28L1120.32 47.4691Z" fill="#F38C73"/>
<path fill-rule="evenodd" clip-rule="evenodd" d="M235.558 27.5552V15.3675L259.855 15.3675V27.5504C259.857 20.8215 265.295 15.3675 272.003 15.3675H284.152V39.7429H272.003C278.713 39.7429 284.152 45.1996 284.152 51.9307V64.1184H259.855V51.9307C259.855 58.6617 254.415 64.1184 247.706 64.1184H235.558V39.7429H247.701C240.994 39.7403 235.558 34.2847 235.558 27.5552Z" fill="#F38C73"/>
<path d="M1188.73 3.154V0H1210.43V3.154H1202.22V15.3371H1196.92V3.154H1188.73Z" fill="#F38C73"/>
<path d="M1231.37 0H1239.86V15.3371H1234.59V3.95796L1228.59 13.8116L1227.68 15.3371H1223.93L1223 13.8116L1217.02 3.95796V15.3371H1211.75V0H1220.22L1225.79 9.19401L1231.37 0Z" fill="#F38C73"/>
</svg>
